<svg version="1.2" xmlns="http://www.w3.org/2000/svg" viewBox="0 0 460 511" width="460" height="511"><style>.a{fill:#777}</style><path fill-rule="evenodd" class="a" d="m230.5 510.9c-11.2 0-22.4-3.1-31.7-8.7l-166.1-95.8c-19.3-11.2-31.7-32.3-31.7-55.3v-191.6c0-23 12.4-43.5 31.7-55.3l165.5-95.8c19.9-11.2 44.1-11.2 64 0l166.1 95.8c19.9 11.2 31.7 32.3 31.7 55.3v191.6c0 23-12.4 43.5-31.7 55.3l-166.1 95.8c-9.9 5.6-20.5 8.7-31.7 8.7zm0-490.1c-7.5 0-14.9 1.9-21.8 5.6l-165.4 95.8c-13.1 7.5-21.8 21.8-21.8 37.3v191.6c0 15.5 8.1 29.8 21.8 37.3l165.4 95.8c13.7 8.1 29.9 8.1 43.6 0l166-95.2c13.1-7.4 21.8-21.7 21.8-37.3v-192.2c0-15.5-8.1-29.8-21.8-37.3l-166-95.8c-6.9-3.7-14.3-5.6-21.8-5.6z"/><path class="a" d="m382.3 200v161.7h-51v-134.4c0-14.9-12.5-27.3-27.4-27.3h-52.3c10 3.1 16.2 12.4 15.6 23v138.7h-50.4v-134.4c0-14.9-12.4-27.3-27.3-27.3h-60.4v161.7h-51v-192.2c0-11.2 9.4-19.9 20.5-19.9h233.3c28 0 50.4 22.4 50.4 50.4z"/></svg>